<svg width="216" height="107" viewBox="0 0 216 107" fill="none" xmlns="http://www.w3.org/2000/svg">
<path d="M139.444 43.3276H81.9014L106.916 0L111.876 8.83289L97.1421 34.342H134.257L139.444 43.3276Z" fill="#EBE4A3"/>
<path d="M121.784 12.8646L110.239 32.9615H103.086L118.21 6.67053L121.784 12.8646Z" fill="#EBE4A3"/>
<path d="M123.03 14.0312L129.132 24.6051H116.922L123.03 14.0312Z" fill="#EBE4A3"/>
<path d="M133.769 32.9613H121.558L116.922 25.7289H129.688L133.769 32.9613Z" fill="#EBE4A3"/>
<path d="M4.27454 82.4222L12.014 62.9116H15.9357L23.5896 82.4222H19.0021L13.1441 66.2285H14.7201L8.78261 82.4222H4.28064H4.27454ZM8.66655 78.8854V75.3485H19.3076V78.8854H8.66655Z" fill="#171717"/>
<path d="M25.6603 82.4222V62.9116H29.9974V82.4222H25.6603ZM29.0078 82.4222V78.6105H38.6531V82.4222H29.0078Z" fill="#171717"/>
<path d="M49.3431 82.7273C47.8893 82.7273 46.5393 82.4708 45.2931 81.9699C44.047 81.469 42.9597 80.7482 42.0312 79.8319C41.1027 78.9095 40.3758 77.8344 39.8627 76.6127C39.3496 75.391 39.0869 74.0655 39.0869 72.6483C39.0869 71.2311 39.3435 69.9117 39.8627 68.6839C40.3758 67.4561 41.0966 66.3932 42.019 65.4892C42.9414 64.5851 44.0226 63.8826 45.2687 63.3756C46.5148 62.8686 47.8587 62.6182 49.3187 62.6182C50.8641 62.6182 52.2446 62.8625 53.448 63.3634C54.6575 63.8582 55.7081 64.5423 56.6122 65.4097L53.7107 68.3357C53.1975 67.7798 52.5745 67.3523 51.8476 67.0407C51.1207 66.7231 50.2777 66.5704 49.3187 66.5704C48.4696 66.5704 47.6938 66.7109 46.9852 66.998C46.2766 67.2851 45.6658 67.6943 45.1588 68.2258C44.6518 68.7633 44.2547 69.4047 43.9676 70.1622C43.6805 70.9196 43.54 71.7504 43.54 72.6483C43.54 73.5463 43.6805 74.4076 43.9676 75.165C44.2547 75.9225 44.6518 76.5639 45.1588 77.1014C45.6658 77.639 46.2705 78.0482 46.9852 78.3475C47.6938 78.6469 48.4757 78.7935 49.3187 78.7935C50.3143 78.7935 51.1756 78.6346 51.9148 78.3231C52.6539 78.0116 53.2892 77.5779 53.8206 77.0281L56.7527 79.9541C55.812 80.8215 54.743 81.4995 53.5335 82.0004C52.324 82.5013 50.9313 82.7457 49.3492 82.7457L49.3431 82.7273Z" fill="#171717"/>
<path d="M67.6624 82.7517C66.1903 82.7517 64.8281 82.4951 63.588 81.9759C62.3419 81.4628 61.2546 80.742 60.3139 79.8196C59.3732 78.8972 58.6463 77.8221 58.1331 76.6004C57.62 75.3787 57.3574 74.0532 57.3574 72.636C57.3574 71.2188 57.6139 69.875 58.1331 68.6594C58.6463 67.4438 59.3671 66.3809 60.2894 65.4646C61.2118 64.5545 62.293 63.8459 63.5392 63.3389C64.7853 62.8319 66.1414 62.5814 67.6135 62.5814C69.0857 62.5814 70.4173 62.838 71.6635 63.3389C72.9035 63.8459 73.9908 64.5545 74.9254 65.4646C75.8539 66.3748 76.5808 67.4438 77.0939 68.6716C77.607 69.8994 77.8697 71.2249 77.8697 72.6604C77.8697 74.0959 77.6132 75.4032 77.0939 76.6249C76.5808 77.8527 75.86 78.9217 74.9376 79.8318C74.0152 80.742 72.934 81.4567 71.6879 81.9698C70.4418 82.489 69.104 82.7456 67.6685 82.7456L67.6624 82.7517ZM67.6074 78.8056C68.768 78.8056 69.7882 78.549 70.6617 78.0298C71.5352 77.5167 72.2132 76.7898 72.6897 75.8613C73.1662 74.9328 73.4105 73.8577 73.4105 72.6421C73.4105 71.7197 73.27 70.889 72.9951 70.1437C72.7202 69.3985 72.3232 68.751 71.8101 68.2074C71.297 67.6637 70.68 67.2483 69.9714 66.9612C69.2628 66.6741 68.4748 66.5336 67.6074 66.5336C66.4468 66.5336 65.4267 66.7902 64.5532 67.2911C63.6797 67.7981 63.0016 68.5067 62.5252 69.4168C62.0487 70.327 61.8043 71.4021 61.8043 72.636C61.8043 73.5584 61.9448 74.3953 62.2197 75.1527C62.4946 75.9102 62.8856 76.5577 63.3926 77.1013C63.8996 77.645 64.5104 78.0665 65.2312 78.3597C65.952 78.6529 66.74 78.7995 67.6074 78.7995V78.8056Z" fill="#171717"/>
<path d="M78.2729 66.6989V62.9116H94.827V66.6989H78.2729ZM84.3815 82.4222V63.1926H88.7185V82.4222H84.3815Z" fill="#171717"/>
<path d="M97.2582 82.4222V62.9116H101.595V82.4222H97.2582ZM100.575 74.3834V71.1764H104.692C105.56 71.1764 106.226 70.9565 106.696 70.5106C107.166 70.0647 107.398 69.4722 107.398 68.7147C107.398 68.0183 107.166 67.438 106.708 66.9738C106.25 66.5095 105.584 66.2835 104.717 66.2835H100.569V62.9116H105.212C106.5 62.9116 107.63 63.156 108.608 63.6446C109.585 64.1333 110.349 64.8114 110.905 65.6727C111.454 66.5401 111.735 67.5358 111.735 68.6597C111.735 69.7837 111.461 70.7977 110.905 71.659C110.349 72.5142 109.579 73.1861 108.583 73.6626C107.588 74.139 106.421 74.3773 105.077 74.3773H100.575V74.3834ZM107.869 82.4222L101.791 74.023L105.767 72.9479L113.006 82.4283H107.869V82.4222Z" fill="#171717"/>
<path d="M112.817 82.4222L120.556 62.9116H124.478L132.132 82.4222H127.544L121.686 66.2285H123.262L117.325 82.4222H112.823H112.817ZM117.209 78.8854V75.3485H127.85V78.8854H117.209Z" fill="#171717"/>
<path d="M134.202 82.4222V62.9116H138.539V82.4222H134.202ZM137.134 82.4222V78.6105H141.972C143.151 78.6105 144.184 78.3783 145.069 77.908C145.955 77.4376 146.633 76.7535 147.116 75.8494C147.592 74.9454 147.836 73.8825 147.836 72.6425C147.836 71.4024 147.592 70.3457 147.103 69.466C146.615 68.5864 145.931 67.9023 145.057 67.4197C144.184 66.9371 143.157 66.6989 141.978 66.6989H137.006V62.9116H142.033C143.506 62.9116 144.868 63.1437 146.108 63.6141C147.348 64.0845 148.441 64.7564 149.37 65.6299C150.298 66.5034 151.019 67.5358 151.526 68.7269C152.033 69.9181 152.283 71.2253 152.283 72.6669C152.283 74.1085 152.027 75.3974 151.526 76.5886C151.019 77.7858 150.304 78.8182 149.382 79.6856C148.46 80.553 147.378 81.2249 146.138 81.7075C144.898 82.19 143.542 82.4222 142.088 82.4222H137.141H137.134Z" fill="#171717"/>
<path d="M155.038 82.4222V62.9116H159.375V82.4222H155.038ZM158.355 66.6439V62.9116H168.911V66.6439H158.355ZM158.355 74.2734V70.6511H168.08V74.2734H158.355ZM158.355 82.4222V78.6654H169.051V82.4222H158.355Z" fill="#171717"/>
<path d="M185.05 82.6969C183.522 82.6969 182.16 82.3609 180.975 81.689C179.784 81.017 178.849 80.0946 178.171 78.9096C177.487 77.7306 177.145 76.3929 177.145 74.9024V62.9908H180.902V75.0124C180.902 75.8798 181.079 76.625 181.439 77.2481C181.8 77.8773 182.295 78.3598 182.93 78.6958C183.565 79.0379 184.268 79.2089 185.043 79.2089C185.819 79.2089 186.534 79.0379 187.145 78.6958C187.75 78.3537 188.238 77.8711 188.592 77.2481C188.953 76.625 189.13 75.8859 189.13 75.0368V62.9908H192.917V74.9269C192.917 76.4173 192.575 77.749 191.897 78.9218C191.213 80.0885 190.291 81.0109 189.118 81.6829C187.945 82.3548 186.589 82.6908 185.043 82.6908L185.05 82.6969Z" fill="#171717"/>
<path d="M194.499 82.4219L202.318 62.9968H205.385L213.179 82.4219H209.172L203.149 66.4787H204.53L198.421 82.4219H194.499ZM198.641 78.8056V75.6536H209.087V78.8056H198.641Z" fill="#171717"/>
<path d="M54.4071 106.38L57.5163 98.6523H58.738L61.8412 106.38H60.2468L57.8523 100.033H58.4021L55.9709 106.38H54.4071ZM56.0564 104.938V103.686H60.2102V104.938H56.0564Z" fill="#171717"/>
<path d="M62.7574 106.38V98.6523H64.254V106.38H62.7574ZM63.857 106.38V105.048H67.7908V106.38H63.857Z" fill="#171717"/>
<path d="M71.9446 106.49C71.3827 106.49 70.8573 106.386 70.3748 106.184C69.8922 105.983 69.4707 105.702 69.1042 105.335C68.7438 104.975 68.4628 104.547 68.2673 104.065C68.0719 103.582 67.9741 103.063 67.9741 102.501C67.9741 101.939 68.0719 101.426 68.2673 100.937C68.4628 100.454 68.7377 100.033 69.1042 99.6726C69.4646 99.3122 69.8861 99.0312 70.3687 98.8235C70.8512 98.6158 71.3766 98.5181 71.9446 98.5181C72.5616 98.5181 73.1053 98.6219 73.5695 98.8174C74.0399 99.019 74.4552 99.2938 74.8095 99.6481L73.7955 100.662C73.5817 100.43 73.3252 100.247 73.0136 100.112C72.7082 99.978 72.3478 99.9169 71.9385 99.9169C71.5781 99.9169 71.2544 99.978 70.9551 100.1C70.6558 100.222 70.3992 100.399 70.1793 100.625C69.9594 100.858 69.7883 101.133 69.6723 101.45C69.5562 101.768 69.4951 102.116 69.4951 102.501C69.4951 102.886 69.5562 103.24 69.6723 103.558C69.7883 103.875 69.9594 104.144 70.1793 104.376C70.3992 104.608 70.6558 104.785 70.9551 104.908C71.2544 105.03 71.5781 105.097 71.9385 105.097C72.3722 105.097 72.7449 105.03 73.0564 104.901C73.3679 104.767 73.6306 104.584 73.8444 104.339L74.8584 105.353C74.498 105.714 74.0826 105.989 73.6062 106.19C73.1297 106.386 72.5738 106.49 71.9446 106.49Z" fill="#171717"/>
<path d="M79.2138 106.502C78.6519 106.502 78.1265 106.398 77.6379 106.196C77.1492 105.989 76.7277 105.708 76.3612 105.341C76.0008 104.981 75.7137 104.553 75.506 104.064C75.2983 103.576 75.2006 103.057 75.2006 102.501C75.2006 101.945 75.3044 101.426 75.506 100.943C75.7076 100.46 75.9886 100.039 76.3551 99.6785C76.7155 99.3181 77.1431 99.031 77.6256 98.8295C78.1082 98.6279 78.6335 98.5302 79.1955 98.5302C79.7575 98.5302 80.295 98.634 80.7776 98.8295C81.2602 99.031 81.6817 99.312 82.0482 99.6785C82.4086 100.039 82.6957 100.467 82.9034 100.949C83.1111 101.432 83.2088 101.951 83.2088 102.513C83.2088 103.075 83.105 103.588 82.9034 104.077C82.7018 104.565 82.4147 104.987 82.0482 105.347C81.6878 105.708 81.2663 105.995 80.7837 106.202C80.3012 106.41 79.7819 106.508 79.2138 106.508V106.502ZM79.1955 105.103C79.6964 105.103 80.124 104.993 80.4905 104.773C80.857 104.553 81.1441 104.248 81.3518 103.863C81.5595 103.472 81.6634 103.02 81.6634 102.501C81.6634 102.122 81.6023 101.774 81.4862 101.456C81.3701 101.138 81.1991 100.87 80.9792 100.638C80.7593 100.405 80.4966 100.228 80.1973 100.106C79.898 99.984 79.562 99.9168 79.1833 99.9168C78.7007 99.9168 78.2731 100.027 77.9005 100.241C77.5279 100.454 77.2408 100.76 77.0331 101.145C76.8254 101.536 76.7216 101.988 76.7216 102.495C76.7216 102.886 76.7827 103.24 76.9048 103.564C77.027 103.887 77.1919 104.162 77.4118 104.388C77.6317 104.614 77.8883 104.791 78.1937 104.914C78.4992 105.036 78.829 105.103 79.1894 105.103H79.1955Z" fill="#171717"/>
<path d="M84.3937 106.38V98.6523H85.8903V106.38H84.3937ZM85.3406 103.044V101.725H89.6593V103.044H85.3406ZM89.2439 106.38V98.6523H90.7405V106.38H89.2439Z" fill="#171717"/>
<path d="M95.9389 106.502C95.3769 106.502 94.8516 106.398 94.3629 106.196C93.8742 105.989 93.4527 105.708 93.0862 105.341C92.7258 104.981 92.4387 104.553 92.231 104.064C92.0233 103.576 91.9256 103.057 91.9256 102.501C91.9256 101.945 92.0294 101.426 92.231 100.943C92.4326 100.46 92.7136 100.039 93.0801 99.6785C93.4405 99.3181 93.8681 99.031 94.3507 98.8295C94.8332 98.6279 95.3586 98.5302 95.9206 98.5302C96.4825 98.5302 97.0201 98.634 97.5027 98.8295C97.9852 99.031 98.4067 99.312 98.7732 99.6785C99.1336 100.039 99.4207 100.467 99.6284 100.949C99.8361 101.432 99.9338 101.951 99.9338 102.513C99.9338 103.075 99.83 103.588 99.6284 104.077C99.4268 104.565 99.1397 104.987 98.7732 105.347C98.4128 105.708 97.9913 105.995 97.5088 106.202C97.0262 106.41 96.507 106.508 95.9389 106.508V106.502ZM95.9144 105.103C96.4153 105.103 96.8429 104.993 97.2095 104.773C97.576 104.553 97.8631 104.248 98.0708 103.863C98.2784 103.472 98.3823 103.02 98.3823 102.501C98.3823 102.122 98.3212 101.774 98.2051 101.456C98.0891 101.138 97.918 100.87 97.6981 100.638C97.4782 100.405 97.2156 100.228 96.9162 100.106C96.6169 99.984 96.281 99.9168 95.9022 99.9168C95.4197 99.9168 94.9921 100.027 94.6194 100.241C94.2468 100.454 93.9597 100.76 93.752 101.145C93.5444 101.536 93.4405 101.988 93.4405 102.495C93.4405 102.886 93.5016 103.24 93.6238 103.564C93.7459 103.887 93.9109 104.162 94.1308 104.388C94.3507 104.614 94.6072 104.791 94.9127 104.914C95.2181 105.036 95.5479 105.103 95.9083 105.103H95.9144Z" fill="#171717"/>
<path d="M101.119 106.38V98.6523H102.616V106.38H101.119ZM102.218 106.38V105.048H106.152V106.38H102.218Z" fill="#171717"/>
<path d="M112.872 106.49C112.31 106.49 111.784 106.386 111.296 106.184C110.813 105.983 110.392 105.702 110.025 105.335C109.665 104.975 109.384 104.547 109.188 104.065C108.993 103.582 108.895 103.063 108.895 102.501C108.895 101.939 108.993 101.426 109.188 100.937C109.384 100.454 109.659 100.033 110.025 99.6726C110.386 99.3122 110.807 99.0312 111.29 98.8235C111.772 98.6158 112.298 98.5181 112.866 98.5181C113.483 98.5181 114.02 98.6219 114.49 98.8174C114.961 99.019 115.376 99.2938 115.73 99.6481L114.716 100.662C114.503 100.43 114.246 100.247 113.935 100.112C113.623 99.978 113.269 99.9169 112.86 99.9169C112.499 99.9169 112.169 99.978 111.876 100.1C111.577 100.222 111.32 100.399 111.1 100.625C110.88 100.852 110.709 101.133 110.593 101.45C110.477 101.768 110.416 102.116 110.416 102.501C110.416 102.886 110.477 103.24 110.593 103.558C110.709 103.875 110.88 104.144 111.1 104.376C111.32 104.608 111.577 104.785 111.876 104.908C112.175 105.03 112.499 105.097 112.86 105.097C113.293 105.097 113.666 105.03 113.977 104.901C114.289 104.773 114.552 104.584 114.765 104.339L115.779 105.353C115.419 105.714 115.004 105.989 114.527 106.19C114.051 106.386 113.495 106.49 112.866 106.49H112.872Z" fill="#171717"/>
<path d="M120.141 106.502C119.579 106.502 119.047 106.398 118.565 106.196C118.082 105.995 117.655 105.708 117.288 105.341C116.922 104.975 116.641 104.553 116.439 104.064C116.231 103.576 116.134 103.057 116.134 102.501C116.134 101.945 116.231 101.426 116.433 100.943C116.635 100.46 116.915 100.039 117.282 99.6785C117.642 99.3181 118.07 99.031 118.553 98.8295C119.035 98.6279 119.56 98.5302 120.122 98.5302C120.684 98.5302 121.222 98.634 121.705 98.8295C122.187 99.031 122.609 99.312 122.975 99.6785C123.336 100.039 123.623 100.467 123.83 100.949C124.038 101.432 124.136 101.951 124.136 102.513C124.136 103.075 124.032 103.588 123.83 104.077C123.629 104.565 123.342 104.987 122.975 105.347C122.615 105.708 122.193 105.995 121.711 106.202C121.228 106.41 120.709 106.508 120.141 106.508V106.502ZM120.116 105.103C120.617 105.103 121.045 104.993 121.411 104.773C121.778 104.553 122.065 104.248 122.273 103.863C122.48 103.472 122.584 103.02 122.584 102.501C122.584 102.122 122.523 101.774 122.407 101.456C122.291 101.138 122.12 100.87 121.9 100.638C121.68 100.405 121.417 100.228 121.118 100.106C120.819 99.984 120.483 99.9168 120.104 99.9168C119.622 99.9168 119.194 100.027 118.821 100.241C118.449 100.454 118.162 100.76 117.954 101.145C117.746 101.536 117.642 101.988 117.642 102.495C117.642 102.886 117.703 103.24 117.826 103.564C117.948 103.887 118.113 104.162 118.333 104.388C118.546 104.614 118.809 104.791 119.115 104.914C119.42 105.036 119.75 105.103 120.11 105.103H120.116Z" fill="#171717"/>
<path d="M125.321 106.38V98.6523H126.378L129.511 103.667H128.906L132.028 98.6523H133.085V106.38H131.6V101.212L131.887 101.297L129.713 104.791H128.699L126.524 101.297L126.823 101.212V106.38H125.327H125.321Z" fill="#171717"/>
<path d="M134.667 106.38V98.6523H136.163V106.38H134.667ZM135.766 103.509V102.287H137.556C137.788 102.287 138.002 102.238 138.191 102.146C138.381 102.049 138.533 101.914 138.643 101.731C138.753 101.554 138.808 101.334 138.808 101.077C138.808 100.821 138.753 100.613 138.643 100.43C138.533 100.247 138.381 100.106 138.191 100.015C138.002 99.9168 137.788 99.874 137.556 99.874H135.766V98.6523H137.715C138.203 98.6523 138.649 98.7501 139.04 98.9517C139.431 99.1471 139.743 99.4281 139.969 99.7946C140.195 100.161 140.311 100.589 140.311 101.09C140.311 101.591 140.195 102.018 139.969 102.385C139.743 102.745 139.431 103.026 139.04 103.228C138.649 103.423 138.203 103.527 137.715 103.527H135.766V103.509Z" fill="#171717"/>
<path d="M140.219 106.38L143.329 98.6523H144.55L147.654 106.38H146.059L143.665 100.033H144.214L141.783 106.38H140.219ZM141.869 104.938V103.686H146.023V104.938H141.869Z" fill="#171717"/>
<path d="M148.564 106.38V98.6523H149.608L150.06 100.149V106.386H148.564V106.38ZM153.909 106.38L149.321 100.442L149.608 98.6523L154.196 104.59L153.909 106.38ZM153.909 106.38L153.481 104.926V98.6462H154.99V106.373H153.915L153.909 106.38Z" fill="#171717"/>
<path d="M158.954 103.399L155.961 98.6462H157.69L160.011 102.452H159.021L161.342 98.6462H163.047L160.023 103.399H158.954ZM158.752 106.38V102.598H160.261V106.38H158.752Z" fill="#171717"/>
<path d="M1.66626 102.513H47.9198" stroke="#171717" stroke-width="1.83255" stroke-linecap="round" stroke-linejoin="round"/>
<path d="M168.08 102.513H214.334" stroke="#171717" stroke-width="1.83255" stroke-linecap="round" stroke-linejoin="round"/>
</svg>
