<svg width="251" height="167" viewBox="0 0 251 167" fill="none" xmlns="http://www.w3.org/2000/svg">
<g clip-path="url(#clip0_139_1809)">
<path d="M157.194 73.3276H99.6514L124.666 30L129.626 38.8329L114.892 64.342H152.007L157.194 73.3276Z" fill="#EBE4A3"/>
<path d="M139.534 42.8646L127.989 62.9615H120.836L135.96 36.6705L139.534 42.8646Z" fill="#EBE4A3"/>
<path d="M140.78 44.0312L146.882 54.605H134.672L140.78 44.0312Z" fill="#EBE4A3"/>
<path d="M151.519 62.9613H139.308L134.672 55.7289H147.438L151.519 62.9613Z" fill="#EBE4A3"/>
<path d="M22.0245 112.422L29.764 92.9116H33.6857L41.3396 112.422H36.7521L30.8941 96.2285H32.4701L26.5326 112.422H22.0306H22.0245ZM26.4165 108.885V105.348H37.0576V108.885H26.4165Z" fill="#171717"/>
<path d="M43.4103 112.422V92.9116H47.7474V112.422H43.4103ZM46.7578 112.422V108.61H56.4031V112.422H46.7578Z" fill="#171717"/>
<path d="M67.0931 112.727C65.6393 112.727 64.2893 112.471 63.0431 111.97C61.797 111.469 60.7097 110.748 59.7812 109.832C58.8527 108.91 58.1258 107.834 57.6127 106.613C57.0996 105.391 56.8369 104.066 56.8369 102.648C56.8369 101.231 57.0935 99.9118 57.6127 98.684C58.1258 97.4562 58.8466 96.3933 59.769 95.4892C60.6914 94.5852 61.7726 93.8827 63.0187 93.3757C64.2648 92.8687 65.6087 92.6182 67.0687 92.6182C68.6141 92.6182 69.9946 92.8626 71.198 93.3635C72.4075 93.8583 73.4581 94.5424 74.3622 95.4098L71.4607 98.3358C70.9475 97.7799 70.3245 97.3523 69.5976 97.0408C68.8707 96.7231 68.0277 96.5704 67.0687 96.5704C66.2196 96.5704 65.4438 96.7109 64.7352 96.998C64.0266 97.2851 63.4158 97.6944 62.9088 98.2258C62.4018 98.7634 62.0047 99.4048 61.7176 100.162C61.4305 100.92 61.29 101.75 61.29 102.648C61.29 103.546 61.4305 104.408 61.7176 105.165C62.0047 105.923 62.4018 106.564 62.9088 107.101C63.4158 107.639 64.0205 108.048 64.7352 108.348C65.4438 108.647 66.2257 108.794 67.0687 108.794C68.0643 108.794 68.9256 108.635 69.6648 108.323C70.4039 108.012 71.0392 107.578 71.5706 107.028L74.5027 109.954C73.562 110.822 72.493 111.5 71.2835 112C70.074 112.501 68.6813 112.746 67.0992 112.746L67.0931 112.727Z" fill="#171717"/>
<path d="M85.4124 112.752C83.9403 112.752 82.5781 112.495 81.338 111.976C80.0919 111.463 79.0046 110.742 78.0639 109.82C77.1232 108.897 76.3963 107.822 75.8831 106.6C75.37 105.379 75.1074 104.053 75.1074 102.636C75.1074 101.219 75.3639 99.875 75.8831 98.6594C76.3963 97.4438 77.1171 96.3809 78.0394 95.4646C78.9618 94.5545 80.043 93.8459 81.2892 93.3389C82.5353 92.8319 83.8914 92.5814 85.3635 92.5814C86.8357 92.5814 88.1673 92.838 89.4135 93.3389C90.6535 93.8459 91.7408 94.5545 92.6754 95.4646C93.6039 96.3748 94.3308 97.4438 94.8439 98.6716C95.357 99.8994 95.6197 101.225 95.6197 102.66C95.6197 104.096 95.3632 105.403 94.8439 106.625C94.3308 107.853 93.61 108.922 92.6876 109.832C91.7652 110.742 90.684 111.457 89.4379 111.97C88.1918 112.489 86.854 112.746 85.4185 112.746L85.4124 112.752ZM85.3574 108.806C86.518 108.806 87.5382 108.549 88.4117 108.03C89.2852 107.517 89.9632 106.79 90.4397 105.861C90.9162 104.933 91.1605 103.858 91.1605 102.642C91.1605 101.72 91.02 100.889 90.7451 100.144C90.4702 99.3985 90.0732 98.751 89.5601 98.2074C89.047 97.6637 88.43 97.2483 87.7214 96.9612C87.0128 96.6741 86.2248 96.5336 85.3574 96.5336C84.1968 96.5336 83.1767 96.7902 82.3032 97.2911C81.4297 97.7981 80.7516 98.5067 80.2752 99.4168C79.7987 100.327 79.5543 101.402 79.5543 102.636C79.5543 103.558 79.6948 104.395 79.9697 105.153C80.2446 105.91 80.6356 106.558 81.1426 107.101C81.6496 107.645 82.2604 108.066 82.9812 108.36C83.702 108.653 84.49 108.799 85.3574 108.799V108.806Z" fill="#171717"/>
<path d="M96.0229 96.6988V92.9116H112.577V96.6988H96.0229ZM102.131 112.422V93.1926H106.468V112.422H102.131Z" fill="#171717"/>
<path d="M115.008 112.422V92.9116H119.345V112.422H115.008ZM118.325 104.383V101.176H122.442C123.31 101.176 123.976 100.956 124.446 100.511C124.916 100.065 125.148 99.4721 125.148 98.7146C125.148 98.0183 124.916 97.438 124.458 96.9737C124 96.5095 123.334 96.2835 122.467 96.2835H118.319V92.9116H122.962C124.25 92.9116 125.38 93.1559 126.358 93.6446C127.335 94.1333 128.099 94.8113 128.655 95.6726C129.204 96.54 129.485 97.5357 129.485 98.6597C129.485 99.7836 129.211 100.798 128.655 101.659C128.099 102.514 127.329 103.186 126.333 103.663C125.338 104.139 124.171 104.377 122.827 104.377H118.325V104.383ZM125.619 112.422L119.541 104.023L123.517 102.948L130.756 112.428H125.619V112.422Z" fill="#171717"/>
<path d="M130.567 112.422L138.306 92.9116H142.228L149.882 112.422H145.294L139.436 96.2285H141.012L135.075 112.422H130.573H130.567ZM134.959 108.885V105.348H145.6V108.885H134.959Z" fill="#171717"/>
<path d="M151.952 112.422V92.9116H156.289V112.422H151.952ZM154.884 112.422V108.61H159.722C160.901 108.61 161.934 108.378 162.819 107.908C163.705 107.438 164.383 106.753 164.866 105.849C165.342 104.945 165.586 103.882 165.586 102.642C165.586 101.402 165.342 100.346 164.853 99.466C164.365 98.5864 163.681 97.9022 162.807 97.4196C161.934 96.9371 160.907 96.6988 159.728 96.6988H154.756V92.9116H159.783C161.256 92.9116 162.618 93.1437 163.858 93.614C165.098 94.0844 166.191 94.7563 167.12 95.6298C168.048 96.5034 168.769 97.5357 169.276 98.7269C169.783 99.918 170.033 101.225 170.033 102.667C170.033 104.108 169.777 105.397 169.276 106.588C168.769 107.786 168.054 108.818 167.132 109.686C166.21 110.553 165.128 111.225 163.888 111.707C162.648 112.19 161.292 112.422 159.838 112.422H154.891H154.884Z" fill="#171717"/>
<path d="M172.788 112.422V92.9116H177.125V112.422H172.788ZM176.105 96.6439V92.9116H186.661V96.6439H176.105ZM176.105 104.273V100.651H185.83V104.273H176.105ZM176.105 112.422V108.665H186.801V112.422H176.105Z" fill="#171717"/>
<path d="M202.8 112.697C201.272 112.697 199.91 112.361 198.725 111.689C197.534 111.017 196.599 110.095 195.921 108.91C195.237 107.731 194.895 106.393 194.895 104.902V92.9908H198.652V105.012C198.652 105.88 198.829 106.625 199.189 107.248C199.55 107.877 200.045 108.36 200.68 108.696C201.315 109.038 202.018 109.209 202.793 109.209C203.569 109.209 204.284 109.038 204.895 108.696C205.5 108.354 205.988 107.871 206.342 107.248C206.703 106.625 206.88 105.886 206.88 105.037V92.9908H210.667V104.927C210.667 106.417 210.325 107.749 209.647 108.922C208.963 110.089 208.041 111.011 206.868 111.683C205.695 112.355 204.339 112.691 202.793 112.691L202.8 112.697Z" fill="#171717"/>
<path d="M212.249 112.422L220.068 92.9969H223.135L230.929 112.422H226.922L220.899 96.4787H222.28L216.171 112.422H212.249ZM216.391 108.806V105.654H226.837V108.806H216.391Z" fill="#171717"/>
<path d="M72.1571 136.38L75.2663 128.652H76.488L79.5912 136.38H77.9968L75.6023 130.033H76.1521L73.7209 136.38H72.1571ZM73.8064 134.938V133.686H77.9602V134.938H73.8064Z" fill="#171717"/>
<path d="M80.5074 136.38V128.652H82.004V136.38H80.5074ZM81.607 136.38V135.048H85.5408V136.38H81.607Z" fill="#171717"/>
<path d="M89.6946 136.49C89.1327 136.49 88.6073 136.386 88.1248 136.184C87.6422 135.983 87.2207 135.702 86.8542 135.335C86.4938 134.975 86.2128 134.547 86.0173 134.065C85.8219 133.582 85.7241 133.063 85.7241 132.501C85.7241 131.939 85.8219 131.426 86.0173 130.937C86.2128 130.454 86.4877 130.033 86.8542 129.673C87.2146 129.312 87.6361 129.031 88.1187 128.823C88.6012 128.616 89.1266 128.518 89.6946 128.518C90.3116 128.518 90.8553 128.622 91.3195 128.817C91.7899 129.019 92.2052 129.294 92.5595 129.648L91.5455 130.662C91.3317 130.43 91.0752 130.247 90.7636 130.112C90.4582 129.978 90.0978 129.917 89.6885 129.917C89.3281 129.917 89.0044 129.978 88.7051 130.1C88.4058 130.222 88.1492 130.399 87.9293 130.625C87.7094 130.858 87.5383 131.133 87.4223 131.45C87.3062 131.768 87.2451 132.116 87.2451 132.501C87.2451 132.886 87.3062 133.24 87.4223 133.558C87.5383 133.875 87.7094 134.144 87.9293 134.376C88.1492 134.608 88.4058 134.785 88.7051 134.908C89.0044 135.03 89.3281 135.097 89.6885 135.097C90.1222 135.097 90.4949 135.03 90.8064 134.901C91.1179 134.767 91.3806 134.584 91.5944 134.339L92.6084 135.353C92.248 135.714 91.8326 135.989 91.3562 136.19C90.8797 136.386 90.3238 136.49 89.6946 136.49Z" fill="#171717"/>
<path d="M96.9638 136.502C96.4019 136.502 95.8765 136.398 95.3879 136.196C94.8992 135.989 94.4777 135.708 94.1112 135.341C93.7508 134.981 93.4637 134.553 93.256 134.064C93.0483 133.576 92.9506 133.057 92.9506 132.501C92.9506 131.945 93.0544 131.426 93.256 130.943C93.4576 130.46 93.7386 130.039 94.1051 129.679C94.4655 129.318 94.8931 129.031 95.3756 128.829C95.8582 128.628 96.3835 128.53 96.9455 128.53C97.5075 128.53 98.045 128.634 98.5276 128.829C99.0102 129.031 99.4317 129.312 99.7982 129.679C100.159 130.039 100.446 130.467 100.653 130.949C100.861 131.432 100.959 131.951 100.959 132.513C100.959 133.075 100.855 133.588 100.653 134.077C100.452 134.565 100.165 134.987 99.7982 135.347C99.4378 135.708 99.0163 135.995 98.5337 136.202C98.0512 136.41 97.5319 136.508 96.9638 136.508V136.502ZM96.9455 135.103C97.4464 135.103 97.874 134.993 98.2405 134.773C98.607 134.553 98.8941 134.248 99.1018 133.863C99.3095 133.472 99.4134 133.02 99.4134 132.501C99.4134 132.122 99.3523 131.774 99.2362 131.456C99.1201 131.138 98.9491 130.87 98.7292 130.638C98.5093 130.405 98.2466 130.228 97.9473 130.106C97.648 129.984 97.312 129.917 96.9333 129.917C96.4507 129.917 96.0231 130.027 95.6505 130.241C95.2779 130.454 94.9908 130.76 94.7831 131.145C94.5754 131.536 94.4716 131.988 94.4716 132.495C94.4716 132.886 94.5327 133.24 94.6548 133.564C94.777 133.887 94.9419 134.162 95.1618 134.388C95.3817 134.614 95.6383 134.791 95.9437 134.914C96.2492 135.036 96.579 135.103 96.9394 135.103H96.9455Z" fill="#171717"/>
<path d="M102.144 136.38V128.652H103.64V136.38H102.144ZM103.091 133.044V131.725H107.409V133.044H103.091ZM106.994 136.38V128.652H108.49V136.38H106.994Z" fill="#171717"/>
<path d="M113.689 136.502C113.127 136.502 112.602 136.398 112.113 136.196C111.624 135.989 111.203 135.708 110.836 135.341C110.476 134.981 110.189 134.553 109.981 134.064C109.773 133.576 109.676 133.057 109.676 132.501C109.676 131.945 109.779 131.426 109.981 130.943C110.183 130.46 110.464 130.039 110.83 129.679C111.191 129.318 111.618 129.031 112.101 128.829C112.583 128.628 113.109 128.53 113.671 128.53C114.233 128.53 114.77 128.634 115.253 128.829C115.735 129.031 116.157 129.312 116.523 129.679C116.884 130.039 117.171 130.467 117.378 130.949C117.586 131.432 117.684 131.951 117.684 132.513C117.684 133.075 117.58 133.588 117.378 134.077C117.177 134.565 116.89 134.987 116.523 135.347C116.163 135.708 115.741 135.995 115.259 136.202C114.776 136.41 114.257 136.508 113.689 136.508V136.502ZM113.664 135.103C114.165 135.103 114.593 134.993 114.959 134.773C115.326 134.553 115.613 134.248 115.821 133.863C116.028 133.472 116.132 133.02 116.132 132.501C116.132 132.122 116.071 131.774 115.955 131.456C115.839 131.138 115.668 130.87 115.448 130.638C115.228 130.405 114.966 130.228 114.666 130.106C114.367 129.984 114.031 129.917 113.652 129.917C113.17 129.917 112.742 130.027 112.369 130.241C111.997 130.454 111.71 130.76 111.502 131.145C111.294 131.536 111.191 131.988 111.191 132.495C111.191 132.886 111.252 133.24 111.374 133.564C111.496 133.887 111.661 134.162 111.881 134.388C112.101 134.614 112.357 134.791 112.663 134.914C112.968 135.036 113.298 135.103 113.658 135.103H113.664Z" fill="#171717"/>
<path d="M118.869 136.38V128.652H120.366V136.38H118.869ZM119.968 136.38V135.048H123.902V136.38H119.968Z" fill="#171717"/>
<path d="M130.622 136.49C130.06 136.49 129.534 136.386 129.046 136.184C128.563 135.983 128.142 135.702 127.775 135.335C127.415 134.975 127.134 134.547 126.938 134.065C126.743 133.582 126.645 133.063 126.645 132.501C126.645 131.939 126.743 131.426 126.938 130.937C127.134 130.454 127.409 130.033 127.775 129.673C128.136 129.312 128.557 129.031 129.04 128.823C129.522 128.616 130.048 128.518 130.616 128.518C131.233 128.518 131.77 128.622 132.24 128.817C132.711 129.019 133.126 129.294 133.48 129.648L132.466 130.662C132.253 130.43 131.996 130.247 131.685 130.112C131.373 129.978 131.019 129.917 130.61 129.917C130.249 129.917 129.919 129.978 129.626 130.1C129.327 130.222 129.07 130.399 128.85 130.625C128.63 130.852 128.459 131.133 128.343 131.45C128.227 131.768 128.166 132.116 128.166 132.501C128.166 132.886 128.227 133.24 128.343 133.558C128.459 133.875 128.63 134.144 128.85 134.376C129.07 134.608 129.327 134.785 129.626 134.908C129.925 135.03 130.249 135.097 130.61 135.097C131.043 135.097 131.416 135.03 131.727 134.901C132.039 134.773 132.302 134.584 132.515 134.339L133.529 135.353C133.169 135.714 132.754 135.989 132.277 136.19C131.801 136.386 131.245 136.49 130.616 136.49H130.622Z" fill="#171717"/>
<path d="M137.891 136.502C137.329 136.502 136.797 136.398 136.315 136.196C135.832 135.995 135.405 135.708 135.038 135.341C134.672 134.975 134.391 134.553 134.189 134.064C133.981 133.576 133.884 133.057 133.884 132.501C133.884 131.945 133.981 131.426 134.183 130.943C134.385 130.46 134.665 130.039 135.032 129.679C135.392 129.318 135.82 129.031 136.303 128.829C136.785 128.628 137.31 128.53 137.872 128.53C138.434 128.53 138.972 128.634 139.455 128.829C139.937 129.031 140.359 129.312 140.725 129.679C141.086 130.039 141.373 130.467 141.58 130.949C141.788 131.432 141.886 131.951 141.886 132.513C141.886 133.075 141.782 133.588 141.58 134.077C141.379 134.565 141.092 134.987 140.725 135.347C140.365 135.708 139.943 135.995 139.461 136.202C138.978 136.41 138.459 136.508 137.891 136.508V136.502ZM137.866 135.103C138.367 135.103 138.795 134.993 139.161 134.773C139.528 134.553 139.815 134.248 140.023 133.863C140.23 133.472 140.334 133.02 140.334 132.501C140.334 132.122 140.273 131.774 140.157 131.456C140.041 131.138 139.87 130.87 139.65 130.638C139.43 130.405 139.167 130.228 138.868 130.106C138.569 129.984 138.233 129.917 137.854 129.917C137.372 129.917 136.944 130.027 136.571 130.241C136.199 130.454 135.912 130.76 135.704 131.145C135.496 131.536 135.392 131.988 135.392 132.495C135.392 132.886 135.453 133.24 135.576 133.564C135.698 133.887 135.863 134.162 136.083 134.388C136.296 134.614 136.559 134.791 136.865 134.914C137.17 135.036 137.5 135.103 137.86 135.103H137.866Z" fill="#171717"/>
<path d="M143.071 136.38V128.652H144.128L147.261 133.667H146.656L149.778 128.652H150.835V136.38H149.35V131.212L149.637 131.297L147.463 134.791H146.449L144.274 131.297L144.573 131.212V136.38H143.077H143.071Z" fill="#171717"/>
<path d="M152.417 136.38V128.652H153.913V136.38H152.417ZM153.516 133.509V132.287H155.306C155.538 132.287 155.752 132.238 155.941 132.146C156.131 132.049 156.283 131.914 156.393 131.731C156.503 131.554 156.558 131.334 156.558 131.077C156.558 130.821 156.503 130.613 156.393 130.43C156.283 130.247 156.131 130.106 155.941 130.014C155.752 129.917 155.538 129.874 155.306 129.874H153.516V128.652H155.465C155.953 128.652 156.399 128.75 156.79 128.952C157.181 129.147 157.493 129.428 157.719 129.795C157.945 130.161 158.061 130.589 158.061 131.09C158.061 131.59 157.945 132.018 157.719 132.385C157.493 132.745 157.181 133.026 156.79 133.228C156.399 133.423 155.953 133.527 155.465 133.527H153.516V133.509Z" fill="#171717"/>
<path d="M157.969 136.38L161.079 128.652H162.3L165.404 136.38H163.809L161.415 130.033H161.964L159.533 136.38H157.969ZM159.619 134.938V133.686H163.773V134.938H159.619Z" fill="#171717"/>
<path d="M166.314 136.38V128.652H167.358L167.81 130.149V136.386H166.314V136.38ZM171.659 136.38L167.071 130.442L167.358 128.652L171.946 134.59L171.659 136.38ZM171.659 136.38L171.231 134.926V128.646H172.74V136.373H171.665L171.659 136.38Z" fill="#171717"/>
<path d="M176.704 133.399L173.711 128.646H175.44L177.761 132.452H176.771L179.092 128.646H180.797L177.773 133.399H176.704ZM176.502 136.38V132.598H178.011V136.38H176.502Z" fill="#171717"/>
<path d="M19.4163 132.513H65.6698" stroke="#171717" stroke-width="1.83255" stroke-linecap="round" stroke-linejoin="round"/>
<path d="M185.83 132.513H232.084" stroke="#171717" stroke-width="1.83255" stroke-linecap="round" stroke-linejoin="round"/>
</g>
<defs>
<clipPath id="clip0_139_1809">
<rect width="214.5" height="106.502" fill="white" transform="translate(18.5 30)"/>
</clipPath>
</defs>
</svg>
